<mxfile host="app.diagrams.net" modified="2021-01-16T21:05:14.787Z" agent="5.0 (Windows NT 10.0; Win64; x64) AppleWebKit/537.36 (KHTML, like Gecko) Chrome/87.0.4280.107 Safari/537.36" etag="uqXY3DXIA8RqRl0QI2OL" version="14.2.4" type="github">
  <diagram id="C5RBs43oDa-KdzZeNtuy" name="Page-1">
    <mxGraphModel dx="1132" dy="779" grid="1" gridSize="10" guides="1" tooltips="1" connect="1" arrows="1" fold="1" page="1" pageScale="1" pageWidth="827" pageHeight="1169" background="#FCE7CD" math="0" shadow="0">
      <root>
        <mxCell id="WIyWlLk6GJQsqaUBKTNV-0" />
        <mxCell id="WIyWlLk6GJQsqaUBKTNV-1" parent="WIyWlLk6GJQsqaUBKTNV-0" />
        <mxCell id="WIyWlLk6GJQsqaUBKTNV-2" value="" style="rounded=0;html=1;jettySize=auto;orthogonalLoop=1;fontSize=11;endArrow=block;endFill=0;endSize=8;strokeWidth=1;shadow=0;labelBackgroundColor=none;edgeStyle=orthogonalEdgeStyle;strokeColor=#23445D;" parent="WIyWlLk6GJQsqaUBKTNV-1" source="WIyWlLk6GJQsqaUBKTNV-3" edge="1">
          <mxGeometry relative="1" as="geometry">
            <mxPoint x="220" y="170" as="targetPoint" />
          </mxGeometry>
        </mxCell>
        <mxCell id="WIyWlLk6GJQsqaUBKTNV-3" value="start" style="rounded=1;whiteSpace=wrap;html=1;fontSize=12;glass=0;strokeWidth=1;shadow=0;fillColor=#182E3E;strokeColor=#FFFFFF;fontColor=#FFFFFF;" parent="WIyWlLk6GJQsqaUBKTNV-1" vertex="1">
          <mxGeometry x="160" y="80" width="120" height="40" as="geometry" />
        </mxCell>
        <mxCell id="XFTPAkEOY1BgrhTG1SVO-7" value="" style="edgeStyle=orthogonalEdgeStyle;rounded=0;orthogonalLoop=1;jettySize=auto;html=1;strokeColor=#23445D;labelBackgroundColor=#FCE7CD;" parent="WIyWlLk6GJQsqaUBKTNV-1" source="WIyWlLk6GJQsqaUBKTNV-10" target="XFTPAkEOY1BgrhTG1SVO-6" edge="1">
          <mxGeometry relative="1" as="geometry" />
        </mxCell>
        <mxCell id="ManoD_RHB9kSeLOupZJ0-3" style="edgeStyle=orthogonalEdgeStyle;rounded=0;orthogonalLoop=1;jettySize=auto;html=1;entryX=1;entryY=0.5;entryDx=0;entryDy=0;" parent="WIyWlLk6GJQsqaUBKTNV-1" source="WIyWlLk6GJQsqaUBKTNV-10" target="XFTPAkEOY1BgrhTG1SVO-31" edge="1">
          <mxGeometry relative="1" as="geometry">
            <Array as="points">
              <mxPoint x="570" y="300" />
              <mxPoint x="570" y="990" />
            </Array>
          </mxGeometry>
        </mxCell>
        <mxCell id="WIyWlLk6GJQsqaUBKTNV-10" value="&lt;pre style=&quot;background-color: #2b2b2b ; color: #a9b7c6 ; font-family: &amp;#34;jetbrains mono&amp;#34; , monospace ; font-size: 9 8pt&quot;&gt;&lt;span style=&quot;color: #cc7832&quot;&gt;while &lt;/span&gt;(flag)&lt;/pre&gt;" style="rhombus;whiteSpace=wrap;html=1;shadow=0;fontFamily=Helvetica;fontSize=12;align=center;strokeWidth=1;spacing=6;spacingTop=-4;fillColor=#182E3E;strokeColor=#FFFFFF;fontColor=#FFFFFF;" parent="WIyWlLk6GJQsqaUBKTNV-1" vertex="1">
          <mxGeometry x="150" y="260" width="140" height="80" as="geometry" />
        </mxCell>
        <mxCell id="XFTPAkEOY1BgrhTG1SVO-3" value="" style="edgeStyle=orthogonalEdgeStyle;rounded=0;orthogonalLoop=1;jettySize=auto;html=1;strokeColor=#23445D;labelBackgroundColor=#FCE7CD;" parent="WIyWlLk6GJQsqaUBKTNV-1" target="WIyWlLk6GJQsqaUBKTNV-10" edge="1">
          <mxGeometry relative="1" as="geometry">
            <mxPoint x="220" y="230" as="sourcePoint" />
          </mxGeometry>
        </mxCell>
        <mxCell id="XFTPAkEOY1BgrhTG1SVO-4" value="&lt;pre style=&quot;background-color: #2b2b2b ; color: #a9b7c6 ; font-family: &amp;#34;jetbrains mono&amp;#34; , monospace ; font-size: 9 8pt&quot;&gt;&lt;span style=&quot;color: #cc7832&quot;&gt;boolean &lt;/span&gt;flag = &lt;span style=&quot;color: #cc7832&quot;&gt;true;&lt;/span&gt;&lt;/pre&gt;&lt;pre style=&quot;background-color: #2b2b2b ; color: #a9b7c6 ; font-family: &amp;#34;jetbrains mono&amp;#34; , monospace ; font-size: 9 8pt&quot;&gt;&lt;pre style=&quot;font-family: &amp;#34;jetbrains mono&amp;#34; , monospace&quot;&gt;&lt;span style=&quot;color: #cc7832&quot;&gt;int&lt;/span&gt;[] array&lt;/pre&gt;&lt;/pre&gt;" style="shape=parallelogram;perimeter=parallelogramPerimeter;whiteSpace=wrap;html=1;fixedSize=1;fillColor=#182E3E;strokeColor=#FFFFFF;fontColor=#FFFFFF;" parent="WIyWlLk6GJQsqaUBKTNV-1" vertex="1">
          <mxGeometry x="130" y="170" width="180" height="60" as="geometry" />
        </mxCell>
        <mxCell id="XFTPAkEOY1BgrhTG1SVO-9" value="" style="edgeStyle=orthogonalEdgeStyle;rounded=0;orthogonalLoop=1;jettySize=auto;html=1;strokeColor=#23445D;labelBackgroundColor=#FCE7CD;" parent="WIyWlLk6GJQsqaUBKTNV-1" source="XFTPAkEOY1BgrhTG1SVO-6" target="XFTPAkEOY1BgrhTG1SVO-8" edge="1">
          <mxGeometry relative="1" as="geometry" />
        </mxCell>
        <mxCell id="XFTPAkEOY1BgrhTG1SVO-6" value="&lt;pre style=&quot;background-color: #2b2b2b ; color: #a9b7c6 ; font-family: &amp;quot;jetbrains mono&amp;quot; , monospace ; font-size: 9 8pt&quot;&gt;&lt;span style=&quot;color: #cc7832&quot;&gt;int &lt;/span&gt;count = &lt;span style=&quot;color: #6897bb&quot;&gt;0&lt;/span&gt;&lt;span style=&quot;color: #cc7832&quot;&gt;;&lt;/span&gt;&lt;/pre&gt;" style="shape=parallelogram;perimeter=parallelogramPerimeter;whiteSpace=wrap;html=1;fixedSize=1;shadow=0;strokeWidth=1;spacing=6;spacingTop=-4;fillColor=#182E3E;strokeColor=#FFFFFF;fontColor=#FFFFFF;" parent="WIyWlLk6GJQsqaUBKTNV-1" vertex="1">
          <mxGeometry x="160" y="370" width="120" height="50" as="geometry" />
        </mxCell>
        <mxCell id="XFTPAkEOY1BgrhTG1SVO-11" value="" style="edgeStyle=orthogonalEdgeStyle;rounded=0;orthogonalLoop=1;jettySize=auto;html=1;strokeColor=#23445D;labelBackgroundColor=#FCE7CD;" parent="WIyWlLk6GJQsqaUBKTNV-1" source="XFTPAkEOY1BgrhTG1SVO-8" target="XFTPAkEOY1BgrhTG1SVO-10" edge="1">
          <mxGeometry relative="1" as="geometry" />
        </mxCell>
        <mxCell id="XFTPAkEOY1BgrhTG1SVO-8" value="&lt;pre style=&quot;background-color: #2b2b2b ; color: #a9b7c6 ; font-family: &amp;quot;jetbrains mono&amp;quot; , monospace ; font-size: 9 8pt&quot;&gt;&lt;span style=&quot;color: #cc7832&quot;&gt;for &lt;/span&gt;(&lt;span style=&quot;color: #cc7832&quot;&gt;int &lt;/span&gt;i = &lt;span style=&quot;color: #6897bb&quot;&gt;0&lt;/span&gt;&lt;span style=&quot;color: #cc7832&quot;&gt;; &lt;/span&gt;i &amp;lt; array.&lt;span style=&quot;color: #9876aa&quot;&gt;length&lt;/span&gt;-&lt;span style=&quot;color: #6897bb&quot;&gt;1&lt;/span&gt;&lt;span style=&quot;color: #cc7832&quot;&gt;; &lt;/span&gt;i++)&lt;/pre&gt;" style="whiteSpace=wrap;html=1;shadow=0;strokeWidth=1;spacing=6;spacingTop=-4;fillColor=#182E3E;strokeColor=#FFFFFF;fontColor=#FFFFFF;" parent="WIyWlLk6GJQsqaUBKTNV-1" vertex="1">
          <mxGeometry x="70" y="450" width="300" height="40" as="geometry" />
        </mxCell>
        <mxCell id="XFTPAkEOY1BgrhTG1SVO-14" value="" style="edgeStyle=orthogonalEdgeStyle;rounded=0;orthogonalLoop=1;jettySize=auto;html=1;strokeColor=#23445D;labelBackgroundColor=#FCE7CD;" parent="WIyWlLk6GJQsqaUBKTNV-1" source="XFTPAkEOY1BgrhTG1SVO-10" target="XFTPAkEOY1BgrhTG1SVO-13" edge="1">
          <mxGeometry relative="1" as="geometry" />
        </mxCell>
        <mxCell id="XFTPAkEOY1BgrhTG1SVO-32" style="edgeStyle=orthogonalEdgeStyle;curved=0;rounded=1;sketch=0;orthogonalLoop=1;jettySize=auto;html=1;entryX=1;entryY=0.5;entryDx=0;entryDy=0;strokeColor=#23445D;" parent="WIyWlLk6GJQsqaUBKTNV-1" source="XFTPAkEOY1BgrhTG1SVO-10" target="XFTPAkEOY1BgrhTG1SVO-8" edge="1">
          <mxGeometry relative="1" as="geometry">
            <Array as="points">
              <mxPoint x="420" y="545" />
              <mxPoint x="420" y="470" />
            </Array>
          </mxGeometry>
        </mxCell>
        <mxCell id="XFTPAkEOY1BgrhTG1SVO-10" value="&lt;pre style=&quot;background-color: #2b2b2b ; color: #a9b7c6 ; font-family: &amp;#34;jetbrains mono&amp;#34; , monospace ; font-size: 9 8pt&quot;&gt;&lt;span style=&quot;color: #cc7832&quot;&gt;if&lt;/span&gt;(array[i] &amp;gt; array[i + &lt;span style=&quot;color: #6897bb&quot;&gt;1&lt;/span&gt;])&lt;br&gt;&lt;/pre&gt;" style="rhombus;whiteSpace=wrap;html=1;shadow=0;strokeWidth=1;spacing=6;spacingTop=-4;fillColor=#182E3E;strokeColor=#FFFFFF;fontColor=#FFFFFF;" parent="WIyWlLk6GJQsqaUBKTNV-1" vertex="1">
          <mxGeometry x="90" y="510" width="260" height="70" as="geometry" />
        </mxCell>
        <mxCell id="XFTPAkEOY1BgrhTG1SVO-16" style="edgeStyle=orthogonalEdgeStyle;curved=0;rounded=1;sketch=0;orthogonalLoop=1;jettySize=auto;html=1;strokeColor=#23445D;entryX=0;entryY=0.25;entryDx=0;entryDy=0;" parent="WIyWlLk6GJQsqaUBKTNV-1" source="XFTPAkEOY1BgrhTG1SVO-13" target="XFTPAkEOY1BgrhTG1SVO-8" edge="1">
          <mxGeometry relative="1" as="geometry">
            <mxPoint x="30" y="460" as="targetPoint" />
            <Array as="points">
              <mxPoint x="40" y="645" />
              <mxPoint x="40" y="460" />
            </Array>
          </mxGeometry>
        </mxCell>
        <mxCell id="XFTPAkEOY1BgrhTG1SVO-36" value="" style="edgeStyle=orthogonalEdgeStyle;curved=0;rounded=1;sketch=0;orthogonalLoop=1;jettySize=auto;html=1;strokeColor=#23445D;" parent="WIyWlLk6GJQsqaUBKTNV-1" source="XFTPAkEOY1BgrhTG1SVO-13" target="XFTPAkEOY1BgrhTG1SVO-22" edge="1">
          <mxGeometry relative="1" as="geometry" />
        </mxCell>
        <mxCell id="XFTPAkEOY1BgrhTG1SVO-13" value="&lt;pre style=&quot;background-color: #2b2b2b ; color: #a9b7c6 ; font-family: &amp;#34;jetbrains mono&amp;#34; , monospace ; font-size: 9 8pt&quot;&gt;&lt;span style=&quot;color: #cc7832&quot;&gt;int &lt;/span&gt;temp = array[i + &lt;span style=&quot;color: #6897bb&quot;&gt;1&lt;/span&gt;]&lt;span style=&quot;color: #cc7832&quot;&gt;;&lt;br&gt;&lt;/span&gt;array[i + &lt;span style=&quot;color: #6897bb&quot;&gt;1&lt;/span&gt;] = array[i]&lt;span style=&quot;color: #cc7832&quot;&gt;;&lt;br&gt;&lt;/span&gt;array[i] = temp&lt;span style=&quot;color: #cc7832&quot;&gt;;&lt;br&gt;&lt;/span&gt;count += &lt;span style=&quot;color: #6897bb&quot;&gt;1&lt;/span&gt;&lt;span style=&quot;color: #cc7832&quot;&gt;;&lt;/span&gt;&lt;/pre&gt;" style="whiteSpace=wrap;html=1;shadow=0;strokeWidth=1;spacing=6;spacingTop=-4;fillColor=#182E3E;strokeColor=#FFFFFF;fontColor=#FFFFFF;" parent="WIyWlLk6GJQsqaUBKTNV-1" vertex="1">
          <mxGeometry x="120" y="610" width="200" height="70" as="geometry" />
        </mxCell>
        <mxCell id="XFTPAkEOY1BgrhTG1SVO-40" value="" style="edgeStyle=orthogonalEdgeStyle;curved=0;rounded=1;sketch=0;orthogonalLoop=1;jettySize=auto;html=1;strokeColor=#23445D;" parent="WIyWlLk6GJQsqaUBKTNV-1" source="XFTPAkEOY1BgrhTG1SVO-22" target="XFTPAkEOY1BgrhTG1SVO-39" edge="1">
          <mxGeometry relative="1" as="geometry" />
        </mxCell>
        <mxCell id="XFTPAkEOY1BgrhTG1SVO-22" value="&lt;pre style=&quot;background-color: #2b2b2b ; color: #a9b7c6 ; font-family: &amp;#34;jetbrains mono&amp;#34; , monospace ; font-size: 9 8pt&quot;&gt;&lt;span style=&quot;color: #cc7832&quot;&gt;if&lt;/span&gt;(count == &lt;span style=&quot;color: #6897bb&quot;&gt;0&lt;/span&gt;)&lt;/pre&gt;" style="rhombus;whiteSpace=wrap;html=1;rounded=0;sketch=0;strokeColor=#FFFFFF;fillColor=#182E3E;fontColor=#FFFFFF;" parent="WIyWlLk6GJQsqaUBKTNV-1" vertex="1">
          <mxGeometry x="130" y="720" width="180" height="90" as="geometry" />
        </mxCell>
        <mxCell id="XFTPAkEOY1BgrhTG1SVO-26" style="edgeStyle=orthogonalEdgeStyle;curved=0;rounded=1;sketch=0;orthogonalLoop=1;jettySize=auto;html=1;strokeColor=#23445D;entryX=0;entryY=0.5;entryDx=0;entryDy=0;exitX=0;exitY=0.5;exitDx=0;exitDy=0;" parent="WIyWlLk6GJQsqaUBKTNV-1" source="XFTPAkEOY1BgrhTG1SVO-22" target="WIyWlLk6GJQsqaUBKTNV-10" edge="1">
          <mxGeometry relative="1" as="geometry">
            <mxPoint x="20" y="300" as="targetPoint" />
            <mxPoint x="235" y="920" as="sourcePoint" />
            <Array as="points">
              <mxPoint x="20" y="765" />
              <mxPoint x="20" y="300" />
            </Array>
          </mxGeometry>
        </mxCell>
        <mxCell id="XFTPAkEOY1BgrhTG1SVO-31" value="end" style="rounded=1;whiteSpace=wrap;html=1;sketch=0;strokeColor=#FFFFFF;fillColor=#182E3E;fontColor=#FFFFFF;" parent="WIyWlLk6GJQsqaUBKTNV-1" vertex="1">
          <mxGeometry x="160" y="960" width="120" height="60" as="geometry" />
        </mxCell>
        <mxCell id="XFTPAkEOY1BgrhTG1SVO-33" value="ДА" style="text;html=1;strokeColor=#314354;fillColor=#647687;align=center;verticalAlign=middle;whiteSpace=wrap;rounded=0;sketch=0;fontColor=#ffffff;" parent="WIyWlLk6GJQsqaUBKTNV-1" vertex="1">
          <mxGeometry x="150" y="580" width="40" height="20" as="geometry" />
        </mxCell>
        <mxCell id="XFTPAkEOY1BgrhTG1SVO-34" value="НЕТ" style="text;html=1;strokeColor=#314354;fillColor=#647687;align=center;verticalAlign=middle;whiteSpace=wrap;rounded=0;sketch=0;fontColor=#ffffff;" parent="WIyWlLk6GJQsqaUBKTNV-1" vertex="1">
          <mxGeometry x="340" y="510" width="40" height="20" as="geometry" />
        </mxCell>
        <mxCell id="XFTPAkEOY1BgrhTG1SVO-35" value="НЕТ" style="text;html=1;strokeColor=#314354;fillColor=#647687;align=center;verticalAlign=middle;whiteSpace=wrap;rounded=0;sketch=0;fontColor=#ffffff;" parent="WIyWlLk6GJQsqaUBKTNV-1" vertex="1">
          <mxGeometry x="80" y="730" width="40" height="20" as="geometry" />
        </mxCell>
        <mxCell id="XFTPAkEOY1BgrhTG1SVO-37" value="ДА" style="text;html=1;strokeColor=#314354;fillColor=#647687;align=center;verticalAlign=middle;whiteSpace=wrap;rounded=0;sketch=0;fontColor=#ffffff;" parent="WIyWlLk6GJQsqaUBKTNV-1" vertex="1">
          <mxGeometry x="260" y="810" width="40" height="20" as="geometry" />
        </mxCell>
        <mxCell id="ManoD_RHB9kSeLOupZJ0-1" style="edgeStyle=orthogonalEdgeStyle;rounded=0;orthogonalLoop=1;jettySize=auto;html=1;exitX=0.5;exitY=1;exitDx=0;exitDy=0;" parent="WIyWlLk6GJQsqaUBKTNV-1" source="XFTPAkEOY1BgrhTG1SVO-39" edge="1">
          <mxGeometry relative="1" as="geometry">
            <mxPoint x="20" y="760" as="targetPoint" />
            <mxPoint x="220" y="920" as="sourcePoint" />
            <Array as="points">
              <mxPoint x="220" y="920" />
              <mxPoint x="20" y="920" />
            </Array>
          </mxGeometry>
        </mxCell>
        <mxCell id="XFTPAkEOY1BgrhTG1SVO-39" value="&#xa;&#xa;&lt;pre style=&quot;font-size: 12px ; font-style: normal ; font-weight: 400 ; letter-spacing: normal ; text-align: center ; text-indent: 0px ; text-transform: none ; word-spacing: 0px ; background-color: rgb(43 , 43 , 43) ; color: rgb(169 , 183 , 198) ; font-family: &amp;quot;jetbrains mono&amp;quot; , monospace&quot;&gt;&lt;span&gt;flag = &lt;/span&gt;&lt;span style=&quot;color: rgb(204 , 120 , 50)&quot;&gt;false&lt;/span&gt; &lt;/pre&gt;&#xa;&#xa;" style="rounded=0;whiteSpace=wrap;html=1;sketch=0;strokeColor=#FFFFFF;fillColor=#182E3E;fontColor=#FFFFFF;" parent="WIyWlLk6GJQsqaUBKTNV-1" vertex="1">
          <mxGeometry x="160" y="840" width="120" height="60" as="geometry" />
        </mxCell>
        <mxCell id="ManoD_RHB9kSeLOupZJ0-4" value="Text" style="text;html=1;strokeColor=none;fillColor=none;align=center;verticalAlign=middle;whiteSpace=wrap;rounded=0;" parent="WIyWlLk6GJQsqaUBKTNV-1" vertex="1">
          <mxGeometry x="230" y="530" width="40" height="20" as="geometry" />
        </mxCell>
        <mxCell id="ManoD_RHB9kSeLOupZJ0-5" value="false" style="text;html=1;strokeColor=#314354;fillColor=#647687;align=center;verticalAlign=middle;whiteSpace=wrap;rounded=0;fontColor=#ffffff;" parent="WIyWlLk6GJQsqaUBKTNV-1" vertex="1">
          <mxGeometry x="360" y="260" width="40" height="20" as="geometry" />
        </mxCell>
        <mxCell id="ManoD_RHB9kSeLOupZJ0-7" value="true" style="text;html=1;strokeColor=#314354;fillColor=#647687;align=center;verticalAlign=middle;whiteSpace=wrap;rounded=0;fontColor=#ffffff;" parent="WIyWlLk6GJQsqaUBKTNV-1" vertex="1">
          <mxGeometry x="150" y="340" width="40" height="20" as="geometry" />
        </mxCell>
      </root>
    </mxGraphModel>
  </diagram>
</mxfile>
